<?xml version="1.0" encoding="UTF-8" standalone="no"?>
<!-- Created with Inkscape (http://www.inkscape.org/) -->

<svg
   width="1920"
   height="1080"
   viewBox="0 0 1920 1080"
   version="1.1"
   id="svg5"
   sodipodi:docname="ShowcaseLogo.svg"
   inkscape:version="1.2.2 (732a01da63, 2022-12-09)"
   xmlns:inkscape="http://www.inkscape.org/namespaces/inkscape"
   xmlns:sodipodi="http://sodipodi.sourceforge.net/DTD/sodipodi-0.dtd"
   xmlns="http://www.w3.org/2000/svg"
   xmlns:svg="http://www.w3.org/2000/svg">
  <sodipodi:namedview
     id="namedview7"
     pagecolor="#505050"
     bordercolor="#eeeeee"
     borderopacity="1"
     inkscape:showpageshadow="0"
     inkscape:pageopacity="0"
     inkscape:pagecheckerboard="0"
     inkscape:deskcolor="#505050"
     inkscape:document-units="px"
     showgrid="false"
     inkscape:zoom="0.48245306"
     inkscape:cx="833.24168"
     inkscape:cy="531.65794"
     inkscape:window-width="1920"
     inkscape:window-height="991"
     inkscape:window-x="-9"
     inkscape:window-y="-9"
     inkscape:window-maximized="1"
     inkscape:current-layer="layer4" />
  <defs
     id="defs2" />
  <g
     inkscape:label="background"
     inkscape:groupmode="layer"
     id="layer1"
     style="display:none;fill:#ffffff"
     sodipodi:insensitive="true">
    <rect
       style="opacity:1;fill:#ffffff;fill-opacity:1;fill-rule:nonzero;stroke:#050424;stroke-width:1;stroke-linejoin:miter;stroke-dasharray:none;stroke-opacity:1;paint-order:normal"
       id="rect7265"
       width="2543.2527"
       height="1531.7552"
       x="-329.56573"
       y="-178.25568" />
  </g>
  <g
     inkscape:groupmode="layer"
     id="layer2"
     inkscape:label="middleBlob">
    <ellipse
       style="opacity:1;fill:#000000;fill-opacity:1;fill-rule:nonzero;stroke:#050424;stroke-width:1.63299;stroke-linejoin:miter;stroke-dasharray:none;stroke-opacity:1;paint-order:normal"
       id="path7372"
       cy="335.0155"
       cx="418.9054"
       rx="181.72946"
       ry="134.07939" />
    <ellipse
       style="opacity:1;fill:#000000;fill-opacity:1;fill-rule:nonzero;stroke:#050424;stroke-width:1.63299;stroke-linejoin:miter;stroke-dasharray:none;stroke-opacity:1;paint-order:normal"
       id="path7444"
       cx="728.39813"
       cy="405.49664"
       rx="234.07018"
       ry="142.06358" />
    <ellipse
       style="opacity:1;fill:#000000;fill-opacity:1;fill-rule:nonzero;stroke:#050424;stroke-width:1.63299;stroke-linejoin:miter;stroke-dasharray:none;stroke-opacity:1;paint-order:normal"
       id="path7446"
       cx="961.16797"
       cy="399.9903"
       rx="282.18454"
       ry="200.43077" />
    <ellipse
       style="opacity:1;fill:#000000;fill-opacity:1;fill-rule:nonzero;stroke:#050424;stroke-width:1.63299;stroke-linejoin:miter;stroke-dasharray:none;stroke-opacity:1;paint-order:normal"
       id="path7452"
       cx="993.26074"
       cy="651.68011"
       rx="209.64928"
       ry="138.61113" />
    <ellipse
       style="opacity:1;fill:#000000;fill-opacity:1;fill-rule:nonzero;stroke:#050424;stroke-width:1.63299;stroke-linejoin:miter;stroke-dasharray:none;stroke-opacity:1;paint-order:normal"
       id="path7456"
       cx="1250.7249"
       cy="343.30933"
       rx="161.83452"
       ry="135.49626" />
    <ellipse
       style="opacity:1;fill:#000000;fill-opacity:1;fill-rule:nonzero;stroke:#050424;stroke-width:1.63299;stroke-linejoin:miter;stroke-dasharray:none;stroke-opacity:1;paint-order:normal"
       id="path7460"
       cx="333.04953"
       cy="499.05209"
       rx="229.8786"
       ry="132.38141" />
    <ellipse
       style="opacity:1;fill:#000000;fill-opacity:1;fill-rule:nonzero;stroke:#050424;stroke-width:1.63299;stroke-linejoin:miter;stroke-dasharray:none;stroke-opacity:1;paint-order:normal"
       id="path7462"
       cx="502.24023"
       cy="682.82861"
       rx="226.20055"
       ry="169.7597" />
    <ellipse
       style="opacity:1;fill:#000000;fill-opacity:1;fill-rule:nonzero;stroke:#050424;stroke-width:1.63299;stroke-linejoin:miter;stroke-dasharray:none;stroke-opacity:1;paint-order:normal"
       id="path7464"
       cx="864.52893"
       cy="699.96033"
       rx="305.27878"
       ry="158.85768" />
    <ellipse
       style="opacity:1;fill:#000000;fill-opacity:1;fill-rule:nonzero;stroke:#050424;stroke-width:1.63299;stroke-linejoin:miter;stroke-dasharray:none;stroke-opacity:1;paint-order:normal"
       id="path7466"
       cx="1359.2277"
       cy="682.82861"
       rx="229.8786"
       ry="151.07057" />
    <ellipse
       style="display:inline;opacity:1;fill:#000000;fill-opacity:1;fill-rule:nonzero;stroke:#050424;stroke-width:1.63299;stroke-linejoin:miter;stroke-dasharray:none;stroke-opacity:1;paint-order:normal"
       id="path7472"
       cx="1493.4768"
       cy="397.81924"
       rx="213.32733"
       ry="118.36454" />
    <ellipse
       style="opacity:1;fill:#000000;fill-opacity:1;fill-rule:nonzero;stroke:#050424;stroke-width:1.46228;stroke-linejoin:miter;stroke-dasharray:none;stroke-opacity:1;paint-order:normal"
       id="path7474"
       cx="1503.6243"
       cy="587.36169"
       rx="197.8141"
       ry="156.29208" />
    <ellipse
       style="opacity:1;fill:#000000;fill-opacity:1;fill-rule:nonzero;stroke:#050424;stroke-width:1.46228;stroke-linejoin:miter;stroke-dasharray:none;stroke-opacity:1;paint-order:normal"
       id="ellipse8448"
       cx="1538.2266"
       cy="497.65823"
       rx="197.8141"
       ry="156.29208" />
  </g>
  <g
     inkscape:groupmode="layer"
     id="layer3"
     inkscape:label="outerBlobs">
    <circle
       style="opacity:1;fill:#000000;fill-opacity:1;fill-rule:nonzero;stroke:#050424;stroke-width:1.50307;stroke-linejoin:miter;stroke-dasharray:none;stroke-opacity:1;paint-order:normal"
       id="path7485"
       cx="1400.7374"
       cy="187.49911"
       r="45.174316" />
    <circle
       style="opacity:1;fill:#000000;fill-opacity:1;fill-rule:nonzero;stroke:#050424;stroke-width:1.50307;stroke-linejoin:miter;stroke-dasharray:none;stroke-opacity:1;paint-order:normal"
       id="path7491"
       cx="1662.437"
       cy="296.54059"
       r="51.405262" />
    <circle
       style="opacity:1;fill:#000000;fill-opacity:1;fill-rule:nonzero;stroke:#050424;stroke-width:1.50307;stroke-linejoin:miter;stroke-dasharray:none;stroke-opacity:1;paint-order:normal"
       id="path7499"
       cx="1537.8181"
       cy="807.47778"
       r="48.289791" />
    <circle
       style="opacity:1;fill:#000000;fill-opacity:1;fill-rule:nonzero;stroke:#050424;stroke-width:1.50307;stroke-linejoin:miter;stroke-dasharray:none;stroke-opacity:1;paint-order:normal"
       id="path7513"
       cx="1790.171"
       cy="648.58868"
       r="17.135088" />
    <circle
       style="opacity:1;fill:#000000;fill-opacity:1;fill-rule:nonzero;stroke:#050424;stroke-width:1.50307;stroke-linejoin:miter;stroke-dasharray:none;stroke-opacity:1;paint-order:normal"
       id="circle7515"
       cx="1741.4843"
       cy="830.66821"
       r="26.481499" />
    <circle
       style="opacity:1;fill:#000000;fill-opacity:1;fill-rule:nonzero;stroke:#050424;stroke-width:1.50307;stroke-linejoin:miter;stroke-dasharray:none;stroke-opacity:1;paint-order:normal"
       id="circle7525"
       cx="51.738548"
       cy="533.31616"
       r="26.481499" />
    <circle
       style="opacity:1;fill:#000000;fill-opacity:1;fill-rule:nonzero;stroke:#050424;stroke-width:1.50307;stroke-linejoin:miter;stroke-dasharray:none;stroke-opacity:1;paint-order:normal"
       id="circle7537"
       cx="338.36191"
       cy="128.30521"
       r="17.135088" />
    <circle
       style="opacity:1;fill:#000000;fill-opacity:1;fill-rule:nonzero;stroke:#050424;stroke-width:1.50307;stroke-linejoin:miter;stroke-dasharray:none;stroke-opacity:1;paint-order:normal"
       id="circle7539"
       cx="366.40112"
       cy="935.21204"
       r="17.135088" />
    <circle
       style="opacity:1;fill:#000000;fill-opacity:1;fill-rule:nonzero;stroke:#050424;stroke-width:1.50307;stroke-linejoin:miter;stroke-dasharray:none;stroke-opacity:1;paint-order:normal"
       id="circle7541"
       cx="948.32983"
       cy="982.79181"
       r="17.135088" />
    <ellipse
       style="opacity:1;fill:#000000;fill-opacity:1;fill-rule:nonzero;stroke:#050424;stroke-width:1.50307;stroke-linejoin:miter;stroke-dasharray:none;stroke-opacity:1;paint-order:normal"
       id="path7551"
       cx="988.47943"
       cy="538.75195"
       rx="446.10147"
       ry="110.14852" />
    <circle
       style="opacity:1;fill:#000000;fill-opacity:1;fill-rule:nonzero;stroke:#050424;stroke-width:1.50307;stroke-linejoin:miter;stroke-dasharray:none;stroke-opacity:1;paint-order:normal"
       id="circle8151"
       cx="212.62294"
       cy="694.08398"
       r="26.481499" />
    <path
       style="opacity:1;fill:#ffffff;fill-opacity:1;fill-rule:nonzero;stroke:#050424;stroke-width:0;stroke-linejoin:miter;stroke-dasharray:none;stroke-opacity:1;paint-order:normal"
       id="path8321"
       d="m 462.60562,751.51398 c 78.60201,-22.14746 161.14885,-25.63511 242.37203,-31.2165 155.58617,-8.36904 311.49195,-12.24642 467.23665,-5.43085 103.2557,4.51859 165.1544,10.45354 267.6589,18.7375 145.0931,15.08779 76.212,7.32369 206.6844,22.95617 0,0 -27.1666,-19.28859 -27.1666,-19.28859 v 0 c -128.6467,-14.11612 -60.6343,-7.0362 -204.0684,-20.96708 -98.0867,-7.73354 -169.0719,-14.12976 -267.7643,-18.61777 -156.87316,-7.13375 -313.87729,-3.62505 -470.67539,3.4271 -83.17395,4.78985 -167.45798,7.54549 -248.42259,28.11446 0,0 34.1453,22.28556 34.1453,22.28556 z" />
    <circle
       style="opacity:1;fill:#000000;fill-opacity:1;fill-rule:nonzero;stroke:#050424;stroke-width:1.50307;stroke-linejoin:miter;stroke-dasharray:none;stroke-opacity:1;paint-order:normal"
       id="circle8530"
       cx="1537.8181"
       cy="807.47778"
       r="48.289791" />
    <circle
       style="opacity:1;fill:#000000;fill-opacity:1;fill-rule:nonzero;stroke:#050424;stroke-width:1.50307;stroke-linejoin:miter;stroke-dasharray:none;stroke-opacity:1;paint-order:normal"
       id="circle8534"
       cx="335.24643"
       cy="813.7088"
       r="48.289791" />
    <circle
       style="opacity:1;fill:#000000;fill-opacity:1;fill-rule:nonzero;stroke:#050424;stroke-width:1.50307;stroke-linejoin:miter;stroke-dasharray:none;stroke-opacity:1;paint-order:normal"
       id="circle8536"
       cx="335.24643"
       cy="813.7088"
       r="48.289791" />
    <circle
       style="opacity:1;fill:#000000;fill-opacity:1;fill-rule:nonzero;stroke:#050424;stroke-width:1.50307;stroke-linejoin:miter;stroke-dasharray:none;stroke-opacity:1;paint-order:normal"
       id="circle8538"
       cx="276.05249"
       cy="226.44255"
       r="48.289791" />
  </g>
  <g
     inkscape:groupmode="layer"
     id="layer4"
     inkscape:label="outerStars">
    <path
       sodipodi:type="star"
       style="opacity:1;fill:#000000;fill-opacity:1;fill-rule:nonzero;stroke:#050424;stroke-width:1;stroke-linejoin:miter;stroke-dasharray:none;stroke-opacity:1;paint-order:normal"
       id="path7664"
       inkscape:flatsided="false"
       sodipodi:sides="5"
       sodipodi:cx="709.37402"
       sodipodi:cy="211.05344"
       sodipodi:r1="38.219444"
       sodipodi:r2="19.109722"
       sodipodi:arg1="0.56672922"
       sodipodi:arg2="1.1950477"
       inkscape:rounded="0"
       inkscape:randomized="0"
       d="m 741.6183,231.57252 -25.2316,-2.74259 -16.56346,19.23038 -5.18863,-24.84418 -23.40757,-9.81027 22.02485,-12.61196 2.09678,-25.29346 18.80074,17.04956 24.70345,-5.82194 -10.40535,23.14916 z"
       inkscape:transform-center-x="4.4360407"
       inkscape:transform-center-y="1.092647"
       transform="matrix(1.5030683,0,0,1.5030683,-413.71103,-161.79255)" />
    <path
       sodipodi:type="star"
       style="opacity:1;fill:#000000;fill-opacity:1;fill-rule:nonzero;stroke:#050424;stroke-width:1;stroke-linejoin:miter;stroke-dasharray:none;stroke-opacity:1;paint-order:normal"
       id="path7666"
       inkscape:flatsided="false"
       sodipodi:sides="5"
       sodipodi:cx="1075.7863"
       sodipodi:cy="222.77863"
       sodipodi:r1="42.68034"
       sodipodi:r2="25.285002"
       sodipodi:arg1="2.863293"
       sodipodi:arg2="-2.7868162"
       inkscape:rounded="0"
       inkscape:randomized="0"
       d="m 1034.7481,234.50382 17.3278,-20.50872 -0.1225,-26.62281 24.8596,10.14219 25.2819,-8.34336 -1.9637,26.77693 15.7475,21.46633 -26.0732,6.40686 -15.5494,21.61029 -14.1504,-22.81727 z"
       inkscape:transform-center-x="0.43394727"
       inkscape:transform-center-y="3.4443927"
       transform="matrix(0.91769413,0,0,0.95062701,222.35291,-71.923905)" />
    <path
       sodipodi:type="star"
       style="opacity:1;fill:#000000;fill-opacity:1;fill-rule:nonzero;stroke:#050424;stroke-width:1;stroke-linejoin:miter;stroke-dasharray:none;stroke-opacity:1;paint-order:normal"
       id="path7668"
       inkscape:flatsided="false"
       sodipodi:sides="5"
       sodipodi:cx="1500.6641"
       sodipodi:cy="348.2204"
       sodipodi:r1="29.459177"
       sodipodi:r2="17.452423"
       sodipodi:arg1="0.68572951"
       sodipodi:arg2="1.314048"
       inkscape:rounded="0"
       inkscape:randomized="0"
       d="m 1523.4642,366.87506 -18.3683,-1.77432 -15.1278,10.56849 -3.9887,-18.01761 -14.726,-11.12157 15.9032,-9.36119 6.0267,-17.44199 13.8174,12.23209 18.4506,0.34182 -7.3636,16.92103 z"
       inkscape:transform-center-x="3.4745359"
       inkscape:transform-center-y="-0.78510692"
       transform="matrix(1.5030683,0,0,1.5030683,-440.14668,-166.19849)" />
    <path
       sodipodi:type="star"
       style="opacity:1;fill:#000000;fill-opacity:1;fill-rule:nonzero;stroke:#050424;stroke-width:1;stroke-linejoin:miter;stroke-dasharray:none;stroke-opacity:1;paint-order:normal"
       id="path7670"
       inkscape:flatsided="false"
       sodipodi:sides="5"
       sodipodi:cx="1258.1534"
       sodipodi:cy="812.51428"
       sodipodi:r1="30.813503"
       sodipodi:r2="18.254763"
       sodipodi:arg1="0.83298127"
       sodipodi:arg2="1.4612998"
       inkscape:rounded="0"
       inkscape:randomized="0"
       d="m 1278.8808,835.31443 -18.7325,-4.65471 -17.274,8.61313 -1.3618,-19.25411 -13.5295,-13.7669 17.891,-7.24499 8.9122,-17.12154 12.419,14.77647 19.0376,3.1852 -10.2156,16.37734 z"
       inkscape:transform-center-x="1.5639133"
       inkscape:transform-center-y="-2.908707"
       transform="matrix(1.5030683,0,0,1.5030683,-735.34469,-324.81236)" />
    <path
       sodipodi:type="star"
       style="opacity:1;fill:#000000;fill-opacity:1;fill-rule:nonzero;stroke:#050424;stroke-width:1;stroke-linejoin:miter;stroke-dasharray:none;stroke-opacity:1;paint-order:normal"
       id="path7672"
       inkscape:flatsided="false"
       sodipodi:sides="5"
       sodipodi:cx="590.73102"
       sodipodi:cy="771.05945"
       sodipodi:r1="26.544029"
       sodipodi:r2="15.72541"
       sodipodi:arg1="0.89605538"
       sodipodi:arg2="1.5243739"
       inkscape:rounded="0"
       inkscape:randomized="0"
       d="m 607.31294,791.78685 -15.85217,-5.01893 -15.31859,6.467 -0.1253,-16.62725 -10.88418,-12.57043 15.77473,-5.25727 8.59179,-14.23595 9.87462,13.37807 16.19421,3.77213 -9.67189,13.52538 z"
       inkscape:transform-center-x="0.57209223"
       inkscape:transform-center-y="-3.2615843"
       transform="matrix(1.5030683,0,0,1.5030683,-382.86944,-219.06977)" />
  </g>
  <g
     inkscape:groupmode="layer"
     id="layer5"
     inkscape:label="text"
     style="display:inline">
    <g
       aria-label="Showcase!"
       transform="matrix(0.96842114,0,0,1.0326086,-18.654665,0)"
       id="text7947"
       style="font-size:226.154px;opacity:1;fill:#ffffff;stroke:#050424;stroke-width:0">
      <path
         d="m 506.03478,402.81376 18.77255,59.18875 q -15.34932,-13.25122 -27.60669,-20.2081 -12.14694,-7.06731 -19.98724,-7.06731 -5.85262,0 -9.16542,3.20237 -3.20238,3.09195 -3.20238,8.72372 0,7.06731 6.95689,12.58865 7.06731,5.52133 21.97492,10.04883 33.0176,10.04884 44.61241,19.65596 11.70524,9.49671 11.70524,24.40432 0,24.07303 -23.74175,39.64321 -23.63133,15.57017 -60.84515,15.57017 -18.88298,0 -37.76595,-6.84646 -18.77255,-6.95689 -34.56358,-19.65596 v 26.50242 l -19.76639,-59.07832 q 13.69292,11.15311 26.94413,17.11615 13.36164,5.96305 24.18346,5.96305 11.70524,0 18.22042,-4.96921 6.51518,-4.9692 6.51518,-13.80334 0,-8.28201 -5.30049,-13.14079 -5.19006,-4.9692 -23.30005,-10.60097 -26.39199,-8.39243 -39.31192,-19.87681 -12.91993,-11.59481 -12.91993,-27.16499 0,-19.54553 17.22657,-32.02376 17.22658,-12.47822 44.83327,-12.47822 18.22041,0 35.55741,6.51518 17.33701,6.51518 35.66785,20.20809 z"
         style="font-family:'Snap ITC';-inkscape-font-specification:'Snap ITC'"
         id="path933" />
      <path
         d="m 610.05679,409.77065 -20.09767,67.91246 q 11.92609,-15.57018 25.17731,-23.18962 13.36163,-7.61945 28.60053,-7.61945 19.98724,0 33.45931,13.47206 13.58249,13.47207 13.58249,33.56974 0,14.0242 -6.62561,28.82138 -6.51518,14.79719 -19.54554,30.25694 l 25.72944,8.61328 -65.81435,5.63177 q 7.39859,-7.28817 11.1531,-15.57017 3.75451,-8.39244 3.75451,-17.44743 0,-9.16542 -4.30664,-14.57634 -4.19622,-5.41091 -11.48438,-5.41091 -8.72372,0 -14.79719,7.3986 -5.96304,7.39859 -5.96304,18.44127 0,5.85261 1.54597,11.1531 1.6564,5.19006 4.9692,9.60713 l -56.9802,6.6256 17.11614,-14.4659 -1.98768,-142.00882 -14.68676,-7.28816 77.74044,-4.96921 z"
         style="font-family:'Snap ITC';-inkscape-font-specification:'Snap ITC'"
         id="path935" />
      <path
         d="m 724.0172,488.50493 q 3.42322,4.19621 7.72987,6.1839 4.30664,1.98768 10.15926,1.98768 10.04884,0 17.00572,-6.1839 6.95689,-6.1839 6.95689,-15.12847 0,-3.53365 -1.10427,-6.40475 -1.10427,-2.87109 -3.42323,-5.07963 -13.47206,3.75451 -22.74791,9.93841 -9.27585,6.07347 -14.57633,14.68676 z m 102.69688,17.22657 q 0,9.055 -2.31896,16.8953 -2.31896,7.8403 -6.95688,14.68676 -9.16543,13.58249 -23.85219,21.42279 -14.57633,7.8403 -30.91949,7.8403 -27.82754,0 -45.93753,-16.67444 -17.99956,-16.78487 -17.99956,-42.40388 0,-27.16498 18.33084,-44.39156 18.44127,-17.337 47.48351,-17.337 27.38583,0 44.72283,16.78487 17.44743,16.78487 17.44743,43.17686 z"
         style="font-family:'Snap ITC';-inkscape-font-specification:'Snap ITC'"
         id="path937" />
      <path
         d="m 1051.1013,446.65319 -18.11,10.15926 -28.9318,97.06512 17.8891,12.14694 -85.02859,-3.3128 14.68676,-9.05499 -31.02992,-31.91334 -15.57017,24.40432 16.45359,14.90761 -75.31106,4.9692 17.88914,-12.58865 -28.0484,-92.31677 -18.10999,-7.61945 100.48836,-6.84645 -21.31237,10.15926 1.10427,58.41575 40.30577,-57.53234 23.74175,56.31765 14.0242,-54.21954 -17.22658,-10.60097 z"
         style="font-family:'Snap ITC';-inkscape-font-specification:'Snap ITC'"
         id="path939" />
      <path
         d="m 1167.6015,567.01836 -12.1469,-24.51475 q -13.2512,12.25737 -26.2816,18.10999 -12.9199,5.74219 -27.165,5.74219 -25.9503,0 -42.7351,-15.34932 -16.6745,-15.34932 -16.6745,-39.2015 0,-13.91377 4.9692,-26.50242 4.9692,-12.69908 14.0242,-21.64364 8.282,-8.28201 18.6622,-12.47823 10.4905,-4.30664 22.7479,-4.30664 12.1469,0 23.0792,4.41707 11.0426,4.30664 21.8645,13.47206 l 4.5275,-19.43511 6.4047,48.80863 q -4.1962,-4.63792 -9.4967,-7.06731 -5.1901,-2.42939 -11.1531,-2.42939 -8.1716,0 -13.5825,5.52134 -5.4109,5.52134 -5.4109,13.91377 0,8.28201 6.0735,14.24505 6.1839,5.96305 14.5763,5.96305 5.7422,0 10.9323,-2.8711 5.3004,-2.98152 11.3739,-9.60713 z"
         style="font-family:'Snap ITC';-inkscape-font-specification:'Snap ITC'"
         id="path941" />
      <path
         d="m 1233.5263,473.15561 q -2.8711,3.3128 -4.1962,7.06731 -1.3252,3.75451 -1.3252,8.72371 0,9.71756 6.2944,16.34317 6.4047,6.51517 15.6806,6.51517 3.3128,0 6.8464,-1.32512 3.5337,-1.43554 7.1778,-4.08579 -7.0673,-13.03035 -14.7972,-21.31236 -7.6195,-8.39244 -15.6806,-11.92609 z m 77.2987,-23.0792 -16.2327,7.3986 3.3128,92.53762 12.6991,9.71756 -48.5878,6.07347 8.282,-33.68016 q -10.1593,16.67444 -23.5209,25.1773 -13.2512,8.50286 -28.9318,8.50286 -18.7726,0 -31.6925,-15.34932 -12.8095,-15.45975 -12.8095,-38.20766 0,-29.04224 13.8033,-47.70436 13.8034,-18.77255 34.7845,-18.77255 15.9014,0 27.9379,8.39244 12.147,8.282 20.429,24.84602 l -6.9569,-34.12187 z"
         style="font-family:'Snap ITC';-inkscape-font-specification:'Snap ITC'"
         id="path943" />
      <path
         d="m 1435.3864,445.99062 -20.9811,39.97449 q -8.6133,-7.72987 -16.4536,-11.37395 -7.7298,-3.75451 -15.2389,-3.75451 -6.8464,0 -10.7113,3.09195 -3.7546,3.09194 -3.7546,8.50286 0,9.82798 29.9257,11.81566 2.9815,0.22085 4.6379,0.33128 24.4043,1.6564 35.3366,8.94457 11.0427,7.28816 11.0427,21.8645 0,18.10998 -17.8892,29.59437 -17.7787,11.37395 -46.8209,11.37395 -13.1408,0 -26.6129,-4.08579 -13.3616,-4.08579 -28.0484,-12.47822 l -18.3308,16.23273 14.245,-44.50198 q 10.8219,9.60713 20.8707,14.57633 10.1593,4.85878 18.6621,4.85878 7.0673,0 11.2635,-3.64408 4.1963,-3.75451 4.1963,-10.15927 0,-6.6256 -4.4171,-9.71755 -4.4171,-3.20238 -21.2019,-5.85262 -18.7726,-3.09195 -27.0546,-9.71755 -8.1716,-6.62561 -8.1716,-18.5517 0,-17.44743 14.2451,-27.71712 14.3555,-10.26969 38.6493,-10.26969 13.693,0 23.5209,3.31281 9.828,3.3128 18.3309,10.71139 z"
         style="font-family:'Snap ITC';-inkscape-font-specification:'Snap ITC'"
         id="path945" />
      <path
         d="m 1481.5448,487.62151 q 3.5336,2.8711 8.282,4.5275 4.7483,1.54598 9.7175,1.54598 8.7238,0 14.2451,-5.07964 5.5213,-5.07963 5.5213,-13.03035 0,-3.86494 -1.1042,-6.95689 -1.1043,-3.09195 -3.4233,-5.85262 -11.8156,1.76683 -20.2081,8.06116 -8.282,6.18389 -13.0303,16.78486 z m 109.8746,78.73428 -9.9384,-18.33084 q -14.6868,9.27585 -29.3735,13.80335 -14.6868,4.52749 -30.3674,4.52749 -30.5882,0 -49.0295,-15.12846 -18.3308,-15.23889 -18.3308,-40.30577 0,-13.25121 4.9692,-25.50858 5.0796,-12.3678 14.2451,-21.53322 8.8341,-8.83414 20.4289,-13.36164 11.7052,-4.5275 25.7294,-4.5275 26.8337,0 44.2812,11.59481 17.4474,11.59481 17.4474,29.15267 0,17.66828 -16.1223,29.59437 -16.0119,11.92609 -40.1953,11.92609 -5.9631,0 -11.1532,-0.88341 -5.19,-0.99384 -9.9384,-2.8711 10.3802,7.06731 20.3186,10.49054 10.0488,3.31281 20.6498,3.31281 12.9199,0 23.7417,-5.74219 10.8218,-5.7422 18.5517,-16.67445 z"
         style="font-family:'Snap ITC';-inkscape-font-specification:'Snap ITC'"
         id="path947" />
      <path
         d="m 1701.0732,548.02495 q 0,8.06116 -11.4844,12.58865 -11.374,4.5275 -32.1342,4.5275 -18.883,0 -30.9195,-4.85878 -12.0365,-4.9692 -12.0365,-12.25737 0,-8.06115 11.7052,-12.91993 11.7053,-4.9692 31.2508,-4.9692 19.7664,0 31.6925,4.9692 11.9261,4.96921 11.9261,12.91993 z m 38.6493,-144.99034 -40.7474,8.39244 -19.656,93.64189 24.7356,13.03036 -87.5684,3.20238 17.6682,-17.22658 -8.6132,-89.99781 -31.4717,-17.11615 z"
         style="font-family:'Snap ITC';-inkscape-font-specification:'Snap ITC'"
         id="path949" />
    </g>
  </g>
</svg>
